<?xml version="1.0" encoding="UTF-8" standalone="no"?>
<!-- Creator: CorelDRAW 2020 (64-Bit Evaluation Version) -->

<svg
   xmlns:dc="http://purl.org/dc/elements/1.1/"
   xmlns:cc="http://creativecommons.org/ns#"
   xmlns:rdf="http://www.w3.org/1999/02/22-rdf-syntax-ns#"
   xmlns:svg="http://www.w3.org/2000/svg"
   xmlns="http://www.w3.org/2000/svg"
   xmlns:sodipodi="http://sodipodi.sourceforge.net/DTD/sodipodi-0.dtd"
   xmlns:inkscape="http://www.inkscape.org/namespaces/inkscape"
   xml:space="preserve"
   width="250mm"
   height="150mm"
   version="1.1"
   style="clip-rule:evenodd;fill-rule:evenodd;image-rendering:optimizeQuality;shape-rendering:geometricPrecision;text-rendering:geometricPrecision"
   viewBox="0 0 249999.99 150000"
   id="svg22"
   sodipodi:docname="wao-rect-amber-trans.svg"
   inkscape:version="0.92.3 (2405546, 2018-03-11)"
   inkscape:export-filename="D:\Business\Projects\Weareopen\Images\wao-rect-amber-trans-sm.png"
   inkscape:export-xdpi="25.4"
   inkscape:export-ydpi="25.4"><metadata
   id="metadata26"><rdf:RDF><cc:Work
       rdf:about=""><dc:format>image/svg+xml</dc:format><dc:type
         rdf:resource="http://purl.org/dc/dcmitype/StillImage" /><dc:title></dc:title></cc:Work></rdf:RDF></metadata><sodipodi:namedview
   pagecolor="#ffffff"
   bordercolor="#666666"
   borderopacity="1"
   objecttolerance="10"
   gridtolerance="10"
   guidetolerance="10"
   inkscape:pageopacity="0"
   inkscape:pageshadow="2"
   inkscape:window-width="1451"
   inkscape:window-height="868"
   id="namedview24"
   showgrid="false"
   inkscape:zoom="0.79375"
   inkscape:cx="491.09561"
   inkscape:cy="177.23362"
   inkscape:window-x="592"
   inkscape:window-y="105"
   inkscape:window-maximized="0"
   inkscape:current-layer="svg22"
   inkscape:snap-bbox="true"
   inkscape:snap-page="true" />
 <defs
   id="defs4">
  <style
   type="text/css"
   id="style2">
   <![CDATA[
    .fil0 {fill:#0D47A1}
    .fil1 {fill:#FFCA28;fill-rule:nonzero}
    .fil2 {fill:#FFCA28;fill-rule:nonzero}
   ]]>
  </style>
 </defs>
 
 <rect
   style="opacity:1;fill:#363a50;fill-opacity:1;fill-rule:nonzero;stroke:none;stroke-width:789.8883667;stroke-linecap:butt;stroke-linejoin:round;stroke-miterlimit:4;stroke-dasharray:none;stroke-dashoffset:0;stroke-opacity:1;paint-order:stroke fill markers"
   id="rect4524"
   width="250000"
   height="150000"
   x="0"
   y="0.0011444092" /><g
   id="Layer_x0020_1"
   transform="translate(15614.479,11279.511)">
  <metadata
   id="CorelCorpID_0Corel-Layer" />
  <path
   class="fil1"
   d="m 23101,88168.9 c 898.1,4225.3 2955.9,7497.9 6168.6,9795 3212.5,2297.2 6726.7,3046.2 10540,2235.7 3837.4,-815.7 6757.6,-2920.4 8748.5,-6311.7 1988.5,-3402.6 2525.2,-7226.7 1622.2,-11474.9 -907.8,-4271 -2958.4,-7569.1 -6158.9,-9868.8 -3200.6,-2299.7 -6726.8,-3046.1 -10564.2,-2230.4 -3813.4,810.5 -6719.1,2924.1 -8719.5,6329.2 -2000.6,3405.3 -2544.5,7254.9 -1636.7,11525.9 z M 10502.7,90846.8 C 9736,87239.9 9672,83734.9 10320.5,80317.9 c 634,-3425.9 1968.5,-6641.7 3986.6,-9667.7 1897.5,-2880.6 4310.2,-5296.4 7228.3,-7233.1 2903.5,-1945.6 6112.4,-3285.9 9599.8,-4027.2 3487.6,-741.3 6966.5,-810.5 10434.5,-219.3 3468.1,591.3 6695.8,1832.1 9678.3,3699.4 3006.6,1862.1 5487.8,4219.1 7436.2,7096.1 1958.1,2863 3320.5,6127.8 4094.5,9769 647.4,3045.9 809.4,6003.4 485.9,8872.7 -335.5,2871.8 -1142,5604.3 -2443.8,8202.9 -1828.7,3679.8 -4372.9,6781.7 -7647.3,9296.8 -3272,2526.6 -6948.5,4217.6 -11027.4,5084.6 -3463.3,736.2 -6918.1,800.3 -10362,203.9 -3444,-596.4 -6647.5,-1842.3 -9605.8,-3714.8 -3072,-1932.1 -5599.1,-4327.1 -7566.9,-7176 -1977.3,-2835 -3344.5,-6063 -4108.7,-9658.4 z m 71438.2,-31269.5 -1665.4,354 2760.1,12984.9 2220.4,-472 c 3089.2,-656.6 5323.1,-1717.9 6711.3,-3197.7 1388.1,-1479.9 1851.1,-3277.7 1400.8,-5396.1 -472.2,-2221.3 -1611.9,-3666.6 -3435.9,-4356 -1823.9,-689.4 -4491.8,-660.9 -7991.3,82.9 z m -5461,42665.3 -10339.1,-48641.8 13189.6,-2803.5 c 4054.7,-861.9 7335.1,-1272 9831.7,-1216.1 2496.5,55.8 4807.8,545.8 6934.1,1470.1 2186.5,911.5 4021.3,2245 5492.2,4002.8 1471,1757.7 2435.2,3742.9 2904.9,5952.8 1046.6,4923.8 27.9,9209.4 -3051.5,12879.8 -3067.2,3667.9 -7768.4,6175.1 -14091.7,7519.2 -651.7,138.5 -1146.5,243.7 -1486.8,304 -328.3,57.8 -646.9,101.7 -929.3,137.8 l 3782.2,17794 z m 42779,-9092.9 -10339.1,-48641.8 31568.3,-6710.1 2132.1,10030.6 -19694,4186.1 1869.2,8794 16870.3,-3585.8 2117.5,9961.9 -16870.3,3585.9 2044.4,9618.4 19983.7,-4247.6 2175.9,10236.8 z m 41186.1,-8754.4 -10675,-50222 1170.5,-248.8 37951.9,21601.4 -5697.8,-26805.6 11295.2,-2400.9 10733.4,50496.8 -1061.9,225.7 -38060.5,-21578.3 5639.3,26530.9 z"
   id="path9"
   style="fill:#ffc107;fill-opacity:1;fill-rule:nonzero"
   inkscape:connector-curvature="0" />
  <path
   class="fil2"
   d="m 80617.618,26808.34 c 869.712,4091.17 626.909,7788.994 -717.406,11107.043 -1314.785,3204.227 -3206.979,5064.953 -5674.814,5589.519 -1321.951,281.12 -2466.067,63.695 -3432.029,-652.276 -974.741,-721.558 -1618.397,-1836.141 -1941.661,-3356.521 -120.206,-565.593 -186.136,-1165.667 -207.208,-1805.97 -784.295,4834.118 -2762.673,7588.33 -5928.269,8261.199 -3143.725,668.239 -5013.549,-400.528 -5611.549,-3213.646 -479.229,-2254.709 404.679,-5897.139 2651.885,-10926.972 63.216,-136.33 76.945,-215.989 38.153,-253.823 -27.138,-55.713 -77.423,-75.667 -151.016,-60.023 -1463.709,372.592 -2300.684,588.9 -2495.76,645.73 -1479.034,444.748 -2202.986,867.466 -2164.354,1266.079 0,0 109.351,514.03 329.49,1549.753 20.274,95.463 -99.454,182.146 -353.436,251.588 -253.822,69.282 -445.705,33.364 -581.397,-99.135 -1004.753,-1260.332 -1599.4,-2323.831 -1783.62,-3190.339 -159.158,-749.335 365.568,-1313.65 1571.463,-1708.272 2279.931,-722.516 4627.229,-1344.301 7043.65,-1857.852 631.682,-134.255 978.733,-54.596 1039.554,231.952 39.111,183.582 -19.156,487.69 -167.139,910.568 -1744.351,4830.925 -2348.416,8490.596 -1817.624,10987.793 430.86,2027.067 1513.037,2856.539 3246.372,2488.098 1285.395,-273.139 2279.612,-1229.203 2990.314,-2869.47 701.763,-1646.174 1057.753,-3763.754 1058.871,-6358.808 l -4.151,-5618.254 c 7.982,-178.314 19.316,-341.782 51.563,-479.229 111.586,-522.811 590.336,-870.18 1427.631,-1048.175 1013.693,-215.509 1564.12,-117.493 1653.038,301.075 29.692,139.682 51.882,388.236 63.375,731.296 l 11.973,4173.541 c 9.259,2354.801 177.037,4299.655 503.335,5834.721 499.503,2350.331 1748.181,3313.1 3738.691,2890.063 1593.66,-338.749 2795.735,-1653.836 3611.974,-3953.562 817.819,-2292.543 962.769,-4680.069 435.173,-7162.739 -45.34,-212.955 -606.156,-431.498 -1682.598,-655.628 -1074.682,-216.787 -1685.455,-670.474 -1832.161,-1360.743 -307.46,-1446.947 404.516,-2358.313 2145.374,-2728.351 1579.148,-335.556 2559.65,377.062 2934.313,2139.77 z m 17193.235,-3009.63 c 326.293,1535.066 -212.643,3008.513 -1625.758,4414.274 -1348.945,1346.056 -3822.862,2961.899 -7417.284,4831.564 406.756,1625.261 1061.432,2791.088 1956.681,3498.917 793.889,629.607 1668.391,843.041 2630.53,638.387 1263.375,-268.509 2466.57,-1000.124 3600.802,-2200.751 421.926,-435.01 781.909,-619.231 1081.872,-544.681 343.223,134.255 544.686,360.14 608.696,661.375 48.373,227.642 -17.88,456.721 -190.28,692.983 -1783.011,2121.412 -3699.942,3396.27 -5763.916,3834.952 -3782.472,804.09 -6136.499,-952.552 -7054.421,-5271.204 -685.486,-3224.341 -310.333,-6082.956 1128.162,-8561.156 1357.408,-2353.523 3276.579,-3797.757 5759.276,-4325.515 3055.326,-649.403 4817.254,127.549 5285.64,2330.855 z m -3267.166,1531.235 c -146.713,-690.269 -478.436,-1203.341 -998.222,-1553.425 -510.686,-344.336 -1108.212,-447.461 -1784.121,-303.948 -1182.442,251.428 -2091.104,1104.686 -2726.14,2559.934 -688.049,1566.515 -856.779,3444.8 -513.716,5636.452 2546.39,-1454.928 4239.198,-2628.418 5078.097,-3520.627 840.659,-884.866 1154.825,-1826.882 944.102,-2818.386 z m 36358.123,2427.914 c -1201.75,2689.081 -2532.48,4192.539 -3986.93,4501.596 -1299.92,276.331 -2089.96,-262.124 -2375.71,-1606.105 -204.5,-962.131 -337.48,-2346.34 -390,-4146.883 -1.91,-153.091 -55.71,-226.205 -154.37,-220.458 -120.68,10.217 -202.1,96.58 -236.9,257.654 -1599.72,4753.98 -3633.97,7389.582 -6101.95,7914.148 -2497.2,530.792 -4042.48,-599.276 -4634.09,-3383.02 -732.26,-3444.481 -58.91,-6850.33 2015.57,-10200.625 1916.12,-3048.103 4085.9,-4829.649 6509.67,-5344.796 741.83,-157.721 1564.75,-186.775 2455.53,-76.785 227,20.912 457.68,-158.52 673.82,-549.948 359.35,-621.465 699.69,-970.271 1015.45,-1037.318 154.37,-32.726 350.4,-13.09 572.14,54.915 223.33,75.348 353.12,216.627 380.57,418.088 24.27,186.774 -0.95,645.091 -92.59,1370.798 -514.98,4185.675 -370.03,8154.402 429.27,11914.964 288.78,1358.668 654.35,1994.98 1102.45,1899.677 448.1,-95.144 1065.57,-909.61 1867.27,-2446.592 41.03,-23.946 76.31,-39.111 105.68,-45.337 132.02,-28.096 297.72,28.734 498.38,177.995 199.07,141.917 314.17,286.388 345.3,433.254 12.61,58.746 13.09,97.059 1.44,114.778 z M 123116,19840.199 c -329.33,-1549.753 -1288.1,-2159.725 -2881.92,-1820.976 -1358.82,288.783 -2538.22,1529.798 -3545.53,3724.643 -1063.34,2329.259 -1344.62,4653.729 -849.74,6982.03 429.26,2019.724 1386.6,2875.696 2877.61,2558.657 1432.26,-304.427 2640.07,-1988.913 3625.35,-5046.435 860.76,-2631.77 1120.81,-4767.39 774.23,-6397.919 z m 21812.76,-7530.538 c -168.57,1878.283 -524.88,2875.213 -1068.45,2990.79 -220.29,46.773 -753.96,-8.62 -1601.31,-166.341 -854.54,-156.284 -1469.14,-194.437 -1858.33,-111.586 -756.52,160.754 -1506.81,1218.346 -2241.46,3178.525 -813.35,2168.665 -1124.16,4606.956 -926.69,7305.454 l 241.53,3303.362 c 10.85,665.526 -538.46,1150.821 -1631.97,1459.878 -397.65,115.417 -708.15,135.212 -916.79,56.83 -207.05,-71.197 -307.94,-257.015 -306.98,-541.328 -155.33,-2139.45 -294.37,-4274.591 -431.98,-6402.389 -219.02,-2655.716 -505.41,-4798.04 -853.58,-6435.753 -207.68,-976.977 -509.08,-1419.649 -905.62,-1335.361 -462.78,98.336 -1115.38,928.128 -1958.26,2488.896 -23.15,35.599 -64.17,59.864 -122.76,72.315 -132.18,28.096 -290.54,-30.49 -473.32,-168.097 -184.38,-145.11 -292.14,-291.018 -325.02,-445.227 -15.49,-73.592 -13.41,-135.372 6.7,-185.657 1298.65,-2702.01 2712.07,-4215.204 4224.95,-4536.872 749.17,-159.158 1279.8,-118.45 1599.4,120.845 319.43,238.976 562.56,732.412 720.28,1474.083 109.35,514.19 187.09,1603.071 238.02,3250.362 -4.63,123.878 55.23,187.892 186.29,190.765 123.72,4.47 221.42,-77.743 278.41,-243.286 614.44,-1550.87 1388.84,-2928.374 2330.06,-4134.109 1229.84,-1581.678 2520.34,-2516.35 3864.48,-2802.099 1145.87,-243.446 1782.66,-64.015 1910.69,538.294 51.4,242.328 58.75,601.51 21.71,1077.706 z m 16362.76,-2004.077 c 326.3,1535.065 -212.63,3008.35 -1625.58,4414.11 -1349.09,1346.055 -3822.98,2962.057 -7417.36,4831.562 406.76,1625.421 1061.43,2791.088 1956.67,3498.917 794.03,629.767 1668.36,843.042 2630.49,638.547 1263.37,-268.509 2466.55,-1000.283 3600.77,-2200.911 421.92,-435.01 782.06,-619.071 1081.86,-544.68 343.38,134.414 544.68,360.14 608.69,661.375 48.37,227.641 -17.88,456.72 -190.29,692.982 -1782.98,2121.412 -3699.89,3396.431 -5763.68,3835.112 -3782.59,803.931 -6136.59,-952.711 -7054.5,-5271.203 -685.48,-3224.502 -310.34,-6083.115 1128.15,-8561.312 1357.55,-2353.5213 3276.54,-3797.7547 5759.21,-4325.354 3055.29,-649.5617 4817.2,127.3901 5285.57,2330.855 z m -3267.12,1531.074 c -146.71,-690.268 -478.43,-1203.18 -998.21,-1553.263 -510.68,-344.3363 -1108.2,-447.6213 -1784.1,-303.9483 -1182.43,251.2683 -2091.08,1104.6843 -2726.11,2559.9313 -688.04,1566.353 -856.78,3444.637 -513.72,5636.289 2546.37,-1454.769 4239.16,-2628.258 5078.21,-3520.467 840.48,-884.865 1154.65,-1826.88 943.93,-2818.542 z"
   id="path11"
   inkscape:connector-curvature="0"
   style="fill:#ffc107;fill-opacity:1;fill-rule:nonzero;stroke-width:1.59636688" />
  <path
   class="fil2"
   d="m 134316.59,117596.42 c 101.01,475.75 43.79,913.97 -171.79,1315 -215.57,400.92 -531.58,643.48 -947.33,731.87 -895.31,190.32 -1451.69,-226.12 -1668.42,-1245.38 -97.65,-459.77 -24.21,-880.61 220.44,-1262.64 244.65,-382.04 571.32,-614.41 975.01,-700.25 859.41,-182.68 1389.03,206.19 1592.09,1161.4 z m 8847.42,-8870.12 c 45.87,215.92 -63.72,565.06 -332.81,1048.34 -241.52,435.79 -470.3,676.62 -682.17,721.68 -187.89,39.96 -461.62,-127.54 -824.43,-497.41 -490.81,-501.47 -915.7,-711.95 -1283.49,-633.76 -739.51,157.19 -1277.24,634.91 -1609,1432.35 -364.78,858.83 -409.72,1925.35 -138.66,3200.51 202.26,951.26 562.75,1664.37 1075.68,2131.78 471.69,430.34 989.73,587.65 1549.34,468.68 687.5,-146.19 1283.03,-548.38 1793.65,-1212.6 224.96,-277.67 417.83,-373 576.64,-294 208.98,118.5 324.93,231.79 347.87,339.76 18.76,87.92 -16.68,195.76 -101.82,326.54 -828.95,1249.9 -1822.5,2000.08 -2985.63,2247.28 -2078.73,441.8 -3360.95,-480.39 -3846.89,-2766.81 -384.93,-1810.79 -169.36,-3410.76 642.67,-4799.08 731.06,-1258.36 1710.13,-2017.92 2945.32,-2280.52 1754.84,-373 2713.98,-184.18 2873.73,567.26 z m 10071.13,424.55 c 351.8,1654.87 162.87,3144.67 -564.83,4477.63 -712.41,1266.93 -1701.9,2037.02 -2977.05,2308.09 -2258.4,480.03 -3656.69,-555.57 -4199.62,-3109.81 -351.69,-1654.76 -136.34,-3137.84 647.07,-4444.85 727.47,-1215.73 1722.87,-1957.9 2982.04,-2225.49 1083.21,-230.29 1985.13,-75.3 2705.76,465.09 691.56,521.39 1159.43,1366.2 1406.63,2529.34 z m -1757.85,1046.37 c -466.48,-2194.56 -1330.87,-3155.56 -2594.09,-2887.05 -743.34,158.01 -1259.98,656.34 -1554.44,1491.89 -293.66,839.48 -307.44,1895.24 -37.19,3166.34 461.39,2170.47 1355.08,3112.7 2682.13,2830.63 723.53,-153.83 1224.18,-648.81 1494.67,-1479.14 269.67,-834.39 273.96,-1875.67 8.92,-3122.67 z m 7482.25,2161.2 c 101.13,475.64 43.91,913.97 -171.67,1314.89 -215.58,401.03 -531.7,643.6 -947.33,731.98 -895.43,190.33 -1451.81,-226.11 -1668.42,-1245.49 -97.77,-459.65 -24.21,-880.49 220.32,-1262.53 244.65,-382.15 571.32,-614.52 975.02,-700.36 859.4,-182.68 1389.02,206.19 1592.08,1161.51 z m 12481.97,-3033.23 c -665.38,1449.02 -1383.46,2257.58 -2154.95,2421.49 -799.4,169.94 -1267.04,-64.87 -1403.03,-704.3 -63.72,-299.91 -91.05,-1371.99 -82.02,-3216.26 8.69,-1610.28 -12.86,-2537.33 -66.49,-2789.28 -170.75,-803.46 -623.33,-1124.91 -1354.85,-969.46 -571.66,121.52 -1079.04,780.76 -1527.22,1974.82 -474.36,1266.47 -692.02,2699.74 -659.93,4305.5 l 41.12,1804.53 c 8.23,353.31 -295.62,614.41 -902.61,785.04 -236.55,66.95 -405.44,77.96 -515.02,34.29 -108.66,-39.5 -167.5,-139.82 -175.03,-292.84 -32.67,-1116.8 -70.32,-2236.85 -110.98,-3352.03 -63.94,-1323.34 -188,-2437.48 -379.14,-3336.85 -158.93,-747.5 -362.69,-1096.87 -602.47,-1045.91 -255.89,54.33 -591.01,501.59 -1005.83,1341.76 -20.51,21.09 -42.86,34.18 -66.84,39.27 -75.88,16.11 -170.86,-17.95 -276.16,-100.08 -105.18,-82.01 -169.47,-168.66 -187.31,-252.64 -6.84,-31.98 -7.88,-56.88 -3.36,-74.49 682.87,-1465.36 1400.03,-2277.85 2155.53,-2438.4 715.53,-152.1 1156.07,151.17 1316.62,906.55 90.93,427.79 145.84,1000.96 167.27,1710.94 -2.43,67.3 33.94,101.36 109.35,102.05 71.36,1.51 116.54,-41.58 131.59,-128.35 764.54,-2201.17 1772.34,-3434.85 3031.5,-3702.44 1327.05,-282.06 2138.39,272.34 2433.31,1659.39 69.62,327.71 86.88,1489.81 53.87,3477.14 -15.99,1398.63 3.7,2238.46 63.13,2518.21 47.61,223.92 207.35,306.86 479.22,249.06 195.77,-41.59 532.75,-480.85 1006.76,-1316.86 12.62,-19.34 26.99,-30.81 42.97,-34.29 71.94,-15.29 161.95,15.76 271.18,97.08 108.31,77.15 170.98,155.68 187.89,235.73 6.84,31.97 0.93,62.44 -18.07,91.63 z m 8021.95,-8803.28 c -1306.31,2266.27 -2806.08,4861.98 -4501.26,7774.98 -115.72,183.37 -168.89,286.58 -163.91,310.44 21.08,20.62 61.97,16.11 130.55,-15.17 344.97,-106.69 637.34,-185.57 877.24,-236.54 179.79,-38.23 563.1,-82.13 1153.99,-132.52 590.89,-50.39 986.37,-96.84 1178.31,-137.62 631.55,-134.26 1109.62,-557.53 1439.41,-1266.81 74.83,-178.86 216.74,-238.28 420.15,-185.34 211.75,13.43 288.32,118.27 225.77,315.43 -101.59,347.51 -171.21,688.08 -201.68,1016.36 -108.19,1004.67 -595.52,1601.36 -1470.8,1787.4 -351.8,74.71 -995.52,132.05 -1923.27,170.63 -931.58,39.15 -1607.26,103.44 -2031,193.45 -571.55,121.51 -1086.92,389.91 -1546.1,804.96 -8.46,18.53 -26.87,30.7 -50.85,35.79 -79.82,17.03 -170.87,-17.83 -280.1,-99.15 -105.18,-82.02 -168.66,-164.73 -184.88,-240.6 -6.72,-31.97 -0.69,-62.55 18.19,-91.63 1979.68,-3462.19 3473.77,-6044.23 4482.49,-7745.9 113.87,-191.37 165.54,-302.57 158.7,-334.54 -13.2,-22.25 -50.74,-22.71 -121.05,0.69 -168.43,52.48 -478.53,126.84 -930.19,222.76 -180.01,38.34 -535.4,76.22 -1066.29,113.87 -531.01,37.65 -890.34,76.45 -1078.23,116.42 -399.64,84.91 -677.89,210.82 -843.42,375.66 -165.53,164.61 -328.75,458.26 -493.59,881.88 -69.62,202.83 -215.57,263.07 -432.08,188.01 -171.79,-22.01 -232.37,-130.32 -186.73,-328.06 79.35,-334.31 137.04,-672.56 176.89,-1015.21 64.4,-640.24 152.44,-1051.81 264.92,-1230.32 154.3,-237.36 505.52,-412.39 1053.32,-528.81 359.68,-76.45 987.41,-130.55 1883.08,-162.05 895.66,-31.74 1559.42,-93.37 1991.15,-185.11 583.59,-124.07 1070.93,-386.44 1462,-787.01 20.62,-21.09 38.92,-33.48 54.91,-36.84 83.86,-17.84 191.71,17.72 319.36,107.61 131.83,88.97 204.92,177.93 223.69,265.85 6.72,31.98 3.94,57.69 -8.69,77.04 z"
   id="path13"
   inkscape:connector-curvature="0"
   style="fill:#ffc107;fill-opacity:1;fill-rule:nonzero;stroke-width:1.1583873" />
  <path
   class="fil2"
   d="m 209647.62,98528.817 c -1343.56,-3726.396 -4727.56,-6834.529 -8838.05,-8554.358 -4896.56,-2048.849 -10376.02,-2214.502 -15627.04,-1381.754 -5346.51,847.993 -11520.68,2497.647 -16526.05,4200.249 -4367.98,1485.846 -7521.46,2228.298 -12684.88,3375.484 -10332.69,1653.234 -74932.304,19736.342 -92852.86,13641.982 1220.711,683.18 1679.113,1434.35 2309.384,1954.14 1098.594,905.83 1660.367,1413.07 2447.477,2132.25 2227.88,2035.4 4273.682,3347.3 8614.174,3407.52 4461.665,-34.74 78738.515,-15788.6 83017.105,-16900.74 4421.23,-1151.569 9267.22,-2504.203 13439.46,-3965.381 7455.76,-1917.279 18685.74,-5883.17 26390.15,-2779.107 3113.26,1254.299 6253.18,4701.317 6645.98,7636.078 192.56,1438.72 -681.4,3753.45 -2461.56,5195.39 -2191.65,1775.45 -5577.44,2492.94 -7857.11,1828.31 -1642.61,-478.78 -3405.18,-4323.77 -2774.78,-5795.16 608.89,-1421.23 2483.11,-2300.77 4492.91,-2132.51 2175.45,182.06 4472.9,1476.76 4472.9,1476.76 -2002.89,-6078.845 -9763.83,-4662.659 -12046.79,-1720.25 -2783.5,3587.36 -461.59,8375.15 3574.22,10560.45 4157.63,2251.04 9415.6,1277.46 12801.67,-1438.81 3424.11,-2703.42 4937.63,-6901.45 3463.69,-10740.543 z"
   id="path15"
   inkscape:connector-curvature="0"
   style="fill:#ffc107;fill-opacity:1;fill-rule:nonzero" />
  <path
   class="fil2"
   d="m 13032.336,56262.525 c 833.061,-147.22 21538.418,-5649.085 23732.432,-6418.355 1931.654,-677.243 3940.758,-2689.581 4261.969,-4466.514 157.464,-871.116 -310.355,-2305.677 -1354.609,-3233.815 -1285.635,-1142.807 -3328.282,-1674.417 -4735.643,-1333.142 -1014.006,245.831 -2195.172,2539.068 -1852.19,3453.058 331.273,882.825 1448.527,1470.969 2677.628,1424.559 1330.398,-50.191 2766.179,-774.82 2766.179,-774.82 -1389.859,3647.418 -6078.422,2568.036 -7387.109,711.761 -1595.623,-2263.171 -47.447,-5115.156 2472.229,-6333.829 2595.724,-1255.324 5771.787,-515.449 7758.815,1233.859 1979.588,1742.598 2759.775,4342.286 1810.353,6639.975 -922.527,2232.678 -3070.862,4031.749 -5623.043,4964.765 -2840.337,475.565 -19373.008,3963.202 -25084.967,6229.239 L 10110.4,59297.1 C 9446.5124,58731.947 7472.9009,57416.492 7876.6856,57332.698 Z"
   id="path17"
   inkscape:connector-curvature="0"
   style="fill:#ffc107;fill-opacity:1;fill-rule:nonzero;stroke-width:0.60985464" />
  <path
   class="fil2"
   d="m 177277.51,20744.37 c 12777.25,-3695.126 20473.36,-7055.469 33670.79,-7735.989 l -1706.15,-1724.117 c -507.18,-512.502 -15718.37,2152.736 -21578.31,4326.005 -2609.47,967.789 -1654.07,591.252 -3617.07,1255.246 912.83,-938.556 1109.52,-1594.473 1271.84,-3469.455 157.56,-1819.768 -1113.84,-3423.757 -2918.46,-4129.4414 -1811.5,-708.4389 -4190.22,-421.1697 -5666.94,1097.8704 -1433.41,1474.533 -1785.6,3832.658 -115.25,4994.254 1370.05,952.703 4878.38,519.765 4921.39,-2347.795 0,0 -809.22,861.119 -1715.11,1230.081 -836.95,340.917 -1756.1,215.592 -2206.69,-310.682 -466.49,-544.804 -227.23,-2424.918 411.09,-2849.468 885.91,-589.313 2429.74,-735.545 3604.54,-269.617 954.21,378.415 1637.73,1251.303 1747.91,1892.322 224.79,1307.517 -727.54,3353.708 -1891.01,4306.723 -1235.4,1145.697 -2760.45,2901.113 -4212.57,3734.063 z"
   id="path19"
   inkscape:connector-curvature="0"
   style="fill:#ffc107;fill-opacity:1;fill-rule:nonzero;stroke-width:0.6259954" />
 </g>
</svg>