<?xml version="1.0" encoding="UTF-8"?>
<!DOCTYPE svg PUBLIC "-//W3C//DTD SVG 1.1//EN" "http://www.w3.org/Graphics/SVG/1.1/DTD/svg11.dtd">
<!-- Creator: CorelDRAW 2020 (64-Bit Evaluation Version) -->
<svg xmlns="http://www.w3.org/2000/svg" xml:space="preserve" width="130mm" height="130mm" version="1.1" style="shape-rendering:geometricPrecision; text-rendering:geometricPrecision; image-rendering:optimizeQuality; fill-rule:evenodd; clip-rule:evenodd"
viewBox="0 0 130000 130000"
 xmlns:xlink="http://www.w3.org/1999/xlink"
 xmlns:xodm="http://www.corel.com/coreldraw/odm/2003">
 <defs>
  <style type="text/css">
   <![CDATA[
    .fil0 {fill:#0D47A1}
    .fil1 {fill:#FFCA28;fill-rule:nonzero}
    .fil2 {fill:#FFCA28;fill-rule:nonzero}
   ]]>
  </style>
 </defs>
 <rect class="fil0" x="-24" y="24" width="130000" height="130000"/>
 <g id="Layer_x0020_1">
  <metadata id="CorelCorpID_0Corel-Layer"/>
  <path class="fil1" d="M48267.1 88993.8c1107.5,5210.2 3644.9,9245.5 7606.4,12078 3961.2,2832.6 8294.5,3756.2 12996.6,2756.8 4731.8,-1005.8 8332.6,-3601.1 10787.6,-7782.8 2451.9,-4195.7 3113.7,-8911.1 2000.3,-14149.4 -1119.4,-5266.5 -3648,-9333.3 -7594.4,-12169 -3946.6,-2835.7 -8294.7,-3756.1 -13026.5,-2750.2 -4702.2,999.4 -8285.1,3605.6 -10751.8,7804.3 -2466.9,4199 -3137.5,8945.9 -2018.2,14212.3zm-15534.6 3302.1c-945.4,-4447.6 -1024.3,-8769.5 -224.7,-12982.9 781.8,-4224.4 2427.3,-8189.7 4915.8,-11921 2339.8,-3552 5314.8,-6530.9 8913,-8919 3580.3,-2399.1 7537.1,-4051.7 11837.3,-4965.8 4300.5,-914.1 8590.2,-999.4 12866.5,-270.4 4276.5,729.1 8256.5,2259.1 11934.1,4561.6 3707.4,2296.1 6766.9,5202.5 9169.4,8750 2414.5,3530.3 4094.4,7556.1 5048.8,12045.9 798.3,3755.9 998.1,7402.7 599.2,10940.7 -413.7,3541.2 -1408.2,6910.6 -3013.4,10114.8 -2254.9,4537.5 -5392.1,8362.4 -9429.7,11463.7 -4034.6,3115.5 -8568,5200.6 -13597.6,6269.7 -4270.5,907.8 -8530.6,986.8 -12777.1,251.4 -4246.7,-735.4 -8196.9,-2271.7 -11844.7,-4580.6 -3788,-2382.5 -6904.1,-5335.7 -9330.6,-8848.6 -2438.1,-3495.7 -4124,-7476.1 -5066.3,-11909.5z"/>
  <path class="fil2" d="M38823.4 46527.9c1686.3,-148.1 43921.2,-7504.8 48429.1,-8655.6 3968.8,-1013.2 8324.8,-4674.3 9275,-8160.6 465.9,-1709 -216.5,-4650.4 -2136.3,-6682.7 -2363.6,-2502.4 -6342.8,-3918.4 -9207.9,-3483.5 -2064.2,313.2 -4818.8,4678.7 -4294.5,6560.5 506.4,1817.7 2631.1,3185 5089.3,3306.8 2660.9,132 5649.4,-1062.1 5649.4,-1062.1 -3406.7,7028.6 -12564.9,4059.2 -14850,130.5 -2786.1,-4789.8 797.5,-10205.2 6032.9,-12195.1 5393.4,-2049.7 11595.8,-20.9 15251.7,3812.8 3642.4,3819.1 4744.2,9137.5 2450.9,13552.3 -2228.4,4289.9 -6824.8,7501.6 -12075.2,8916.4 -5745.1,452.7 -39310.6,4521.7 -51092.4,8042.8l-4876.1 1457.3c-1224.8,-1242.4 -4929.7,-4209 -4110.2,-4305.6l10464.3 -1234.2z"/>
 </g>
</svg>
