<?xml version="1.0" encoding="UTF-8" standalone="no"?>
<!-- Creator: CorelDRAW 2020 (64-Bit Evaluation Version) -->

<svg
   xmlns:dc="http://purl.org/dc/elements/1.1/"
   xmlns:cc="http://creativecommons.org/ns#"
   xmlns:rdf="http://www.w3.org/1999/02/22-rdf-syntax-ns#"
   xmlns:svg="http://www.w3.org/2000/svg"
   xmlns="http://www.w3.org/2000/svg"
   xmlns:sodipodi="http://sodipodi.sourceforge.net/DTD/sodipodi-0.dtd"
   xmlns:inkscape="http://www.inkscape.org/namespaces/inkscape"
   xml:space="preserve"
   width="220mm"
   height="220mm"
   version="1.1"
   style="shape-rendering:geometricPrecision; text-rendering:geometricPrecision; image-rendering:optimizeQuality; fill-rule:evenodd; clip-rule:evenodd"
   viewBox="0 0 22000 22000"
   id="svg30"
   sodipodi:docname="We are open icon.svg"
   inkscape:version="0.92.3 (2405546, 2018-03-11)"><metadata
   id="metadata34"><rdf:RDF><cc:Work
       rdf:about=""><dc:format>image/svg+xml</dc:format><dc:type
         rdf:resource="http://purl.org/dc/dcmitype/StillImage" /></cc:Work></rdf:RDF></metadata><sodipodi:namedview
   pagecolor="#ffffff"
   bordercolor="#666666"
   borderopacity="1"
   objecttolerance="10"
   gridtolerance="10"
   guidetolerance="10"
   inkscape:pageopacity="0"
   inkscape:pageshadow="2"
   inkscape:window-width="2560"
   inkscape:window-height="1057"
   id="namedview32"
   showgrid="false"
   inkscape:zoom="0.56765151"
   inkscape:cx="275.04449"
   inkscape:cy="487.39838"
   inkscape:window-x="-8"
   inkscape:window-y="-8"
   inkscape:window-maximized="1"
   inkscape:current-layer="Layer_x0020_1" />
 <defs
   id="defs4">
  <style
   type="text/css"
   id="style2">
   <![CDATA[
    .str0 {stroke:#FFCC00;stroke-width:282.22;stroke-miterlimit:22.9256}
    .fil1 {fill:none}
    .fil0 {fill:#0D47A1}
    .fil2 {fill:#FFCA28;fill-rule:nonzero}
    .fil3 {fill:#FFCC00;fill-rule:nonzero}
   ]]>
  </style>
 </defs>
 <rect
   class="fil0"
   x="-6.67"
   y="6.67"
   width="22000"
   height="22000"
   id="rect6" />
 <g
   id="Layer_x0020_1">
  <metadata
   id="CorelCorpID_0Corel-Layer" />
  <path
   class="fil1 str0"
   d="M4225.45 3621.47c1803.02,-1667.74 4214.74,-2676.41 6856.01,-2651.35 5521.15,52.37 9954.6,4601.72 9902.42,10161.22 -42.73,4552.67 -2657.52,8115.39 -6788.21,9320.33m-1983.12 121.56c-417.44,356.06 -664.84,535.9 -1320.07,529.69 -5521.14,-52.37 -9954.61,-4601.71 -9902.42,-10161.22 27.22,-2899.89 1269.5,-5501.84 3235.39,-7320.23"
   id="path9" />
  <path
   class="fil2"
   d="M3225.57 13719.43c127.53,392.5 355.73,682.89 683.91,869.08 328.19,186.18 669.56,222.25 1023.8,107.15 356.46,-115.82 612.9,-344.96 768.19,-687.06 154.96,-343.16 167.77,-711.86 39.55,-1106.48 -128.91,-396.75 -356.69,-689.64 -683.75,-876.18 -327.06,-186.54 -669.56,-222.25 -1026.02,-106.43 -354.23,115.1 -609.2,344.94 -765.28,688.46 -156.07,343.52 -169.31,714.72 -40.4,1111.46zm-1170.29 380.25c-108.86,-335.04 -149.93,-667.43 -122.45,-998.57 26.03,-331.84 120.7,-650.72 282.24,-958.38 151.53,-292.66 356.64,-546.29 614.56,-759.44 256.45,-213.86 547.95,-373.26 871.91,-478.52 323.95,-105.26 653.82,-146.57 989.23,-125.03 335.42,21.55 654.49,107.2 956.53,254.84 304.26,146.91 563.54,346.08 777.4,599.98 214.64,252.47 376.7,549.06 486.6,887.31 91.94,282.94 136.86,562.33 134.77,838.17 -3.2,276.22 -52.54,543.9 -150.27,803.79 -137,367.9 -347.77,688.04 -633.76,959.72 -285.66,272.73 -618.11,470.12 -996.99,593.23 -321.72,104.53 -649.33,145.12 -982.51,122.85 -333.18,-22.28 -650.01,-108.66 -949.79,-257.03 -311.18,-152.9 -575.2,-355.21 -790.62,-606.26 -216.18,-249.62 -378.33,-542.66 -486.85,-876.66zm6475.4 -3684.47l-154.69 50.27 391.92 1206.19 206.25 -67.01c286.96,-93.24 488.62,-216.38 605.73,-370.85 117.12,-154.49 143.15,-329.93 79.21,-526.7 -67.04,-206.35 -189.76,-332.3 -369.95,-379.58 -180.2,-47.29 -433.39,-17.94 -758.47,87.68zm-92.8 4108.37l-1468.12 -4518.43 1225.21 -398.1c376.64,-122.38 684.24,-194.09 922,-213.72 237.76,-19.64 462.27,3.85 673.53,70.43 216.86,64.78 404.5,173.15 561.81,325.47 157.32,152.33 268.76,331.32 335.46,536.6 148.61,457.37 94.62,874.75 -161.31,1254.24 -254.81,379.13 -676.46,664.31 -1263.84,855.16 -60.53,19.67 -106.49,34.6 -138.22,43.73 -30.62,8.77 -60.45,16.12 -86.92,22.37l537.06 1652.93 -1136.66 369.32zm3973.82 -1291.17l-1468.13 -4518.43 2932.44 -952.81 302.75 931.77 -1829.4 594.41 265.42 816.89 1567.11 -509.19 300.67 925.39 -1567.1 509.19 290.3 893.47 1856.31 -603.16 308.97 950.92 -2959.34 961.55zm3825.85 -1243.1l-1515.83 -4665.21 108.74 -35.33 3821.7 1673.44 -809.06 -2490.03 1049.23 -340.91 1524.11 4690.74 -98.65 32.06 -3831.79 -1670.17 800.77 2464.5 -1049.22 340.91z"
   id="path11" />
  <path
   class="fil3"
   d="m 6972.0587,6984.3788 c 131.1892,403.7698 145.9286,779.6553 45.4107,1128.8752 -98.729,337.4233 -270.0138,545.3426 -513.5694,624.4709 -130.4892,42.4032 -248.2872,32.5899 -353.3811,-29.4268 -106.0533,-62.5223 -182.8612,-168.1996 -231.6164,-318.2504 -18.1357,-55.8203 -31.1768,-115.6851 -40.0956,-180.1129 -27.8713,496.3151 -198.3913,795.3539 -510.8212,896.857 -310.252,100.803 -510.3674,12.7559 -600.5665,-264.8804 -72.3096,-222.5549 -21.7136,-599.6201 151.775,-1131.2345 4.9132,-14.4152 5.4576,-22.6081 1.1538,-26.0174 -3.3316,-5.328 -8.6206,-6.8188 -15.8672,-4.4594 -143.8284,53.1368 -226.0161,83.847 -245.1112,91.6639 -144.6062,60.6037 -213.1953,110.9404 -205.0673,150.7638 0,0 16.4894,50.7516 49.6885,152.9547 3.0723,9.4373 -8.0891,19.471 -32.9917,29.1676 -24.9026,9.6836 -44.6588,8.0891 -59.7481,-3.8372 -114.8165,-116.5665 -186.115,-217.6289 -213.9084,-303.1611 -24.0211,-73.943 22.9711,-136.4912 140.5228,-189.1095 222.4772,-97.1344 452.862,-184.8056 691.3489,-262.3006 62.3408,-20.2487 98.2233,-15.8801 107.4014,12.393 5.8854,18.1228 3.2538,49.4293 -7.2076,93.7121 -124.8501,506.1932 -146.9916,882.0269 -66.9169,1128.4993 65.0113,200.0765 183.0426,272.3083 354.1201,216.7214 126.8594,-41.2105 217.0973,-148.2749 271.4397,-321.3876 53.3832,-173.6442 66.8521,-391.1823 39.4216,-653.1588 l -60.0333,-567.121 c -1.063,-18.0969 -1.6723,-34.7288 0.1296,-48.9367 5.7169,-53.9535 50.3627,-94.101 133.0041,-120.9481 100.0382,-32.4992 156.6492,-28.4546 170.0793,12.8596 4.4723,13.7801 9.3465,38.6308 14.143,73.1523 l 45.5014,421.1795 c 25.9008,237.6183 63.4686,432.1854 112.6904,583.6752 75.369,231.9663 211.6398,315.917 408.0866,252.0984 157.2974,-51.1145 264.7118,-196.6023 322.6969,-437.4355 58.2184,-240.1074 47.5366,-482.6648 -32.0714,-727.6852 -6.8317,-21.0266 -65.7631,-37.153 -176.7943,-48.3533 -110.7978,-10.4874 -177.2609,-49.7923 -199.4024,-117.9277 -46.3958,-142.8044 15.8283,-242.363 187.6317,-298.1832 155.8455,-50.6478 262.4043,10.9152 318.9245,184.8834 z m 1703.7224,-486.2296 c 49.2219,151.5028 10.4485,305.9482 -117.2925,462.8567 -121.9074,150.2064 -354.496,339.5881 -697.5194,566.434 58.3222,159.7733 136.7764,270.5064 234.6498,332.4971 86.8285,55.1202 177.3646,67.3836 272.3342,36.5308 124.6816,-40.5105 238.3832,-127.1576 340.1585,-260.382 37.9567,-48.4052 72.3615,-70.8059 103.4217,-66.4761 36.077,9.9299 58.8277,30.5935 68.4854,60.3055 7.2984,22.4655 3.0205,46.2922 -11.8744,71.9726 -157.4919,233.0941 -337.4751,382.1339 -541.1684,448.3248 -373.3188,121.2851 -629.5785,-31.0602 -768.079,-457.3084 -103.3828,-318.2246 -95.877,-610.7946 23.0489,-876.2323 112.0682,-251.9818 290.4959,-418.1591 535.5034,-497.7671 301.5536,-97.977 487.6685,-38.216 558.3318,179.2444 z m -313.5836,189.2521 c -22.1415,-68.1484 -61.0575,-116.411 -117.2407,-146.2527 -55.2109,-29.349 -116.6443,-33.4325 -183.3278,-11.7577 -116.7091,37.9178 -199.4024,133.7041 -248.0538,287.3587 -52.8257,165.4255 -49.9479,356.8295 7.9335,574.4454 241.637,-173.8646 400.0752,-310.304 475.3016,-409.2792 75.4727,-98.2493 97.1863,-196.6671 65.3872,-294.5145 z m 3696.1415,-140.6395 c -92.779,284.1957 -211.199,450.0878 -354.716,496.73 -128.312,41.6771 -213.766,-4.278 -256.869,-136.932 -30.853,-94.9566 -58.97,-233.2886 -83.38,-414.5034 -1.815,-15.4394 -8.025,-22.2192 -17.929,-20.6117 -12.069,2.3074 -19.367,11.9133 -21.182,28.5194 -111.044,496.8855 -288.461,784.5424 -532.016,863.6837 -246.472,80.0747 -414.452,-17.6172 -503.717,-292.3496 -110.461,-339.9771 -78.636,-690.9211 95.254,-1051.1599 161.096,-328.0248 361.237,-530.9014 600.463,-608.6297 73.204,-23.7877 155.975,-35.4548 247.069,-33.7955 23.139,-0.2981 44.516,-20.871 62.185,-62.6778 29.673,-66.528 60.331,-105.3532 91.495,-115.4776 15.232,-4.939 35.235,-5.0427 58.336,-0.5185 23.347,5.2372 37.956,18.1357 42.869,38.1641 4.434,18.6024 6.728,65.1409 5.199,139.3561 -7.597,428.0242 49.157,827.1271 169.742,1198.281 43.57,134.093 87.23,194.4504 131.435,180.087 44.231,-14.3764 97.926,-103.1495 162.561,-266.7989 3.889,-2.8649 7.272,-4.7705 10.176,-5.7039 13.041,-4.239 30.373,-0.2463 52.204,12.6912 21.597,12.2114 34.754,25.5637 39.46,40.0697 1.893,5.7946 2.333,9.6447 1.361,11.5763 z m -869.997,-716.7052 c -49.688,-152.9547 -152.941,-204.3414 -310.239,-153.2399 -134.119,43.5699 -240.003,181.3574 -318.419,413.6089 -82.628,246.4205 -86.349,484.0518 -11.693,713.8403 64.765,199.3506 170.481,275.601 317.641,227.7922 141.353,-45.9292 245.41,-228.8033 312.443,-547.9093 58.971,-274.8103 62.561,-493.1651 10.267,-654.0922 z m 2122.141,-991.6321 c 2.891,191.404 -22.491,295.8108 -76.134,313.2466 -21.752,7.065 -76.224,7.1428 -163.416,0.2074 -87.93,-6.7021 -150.375,-4.0446 -188.811,8.4391 -74.656,24.2674 -139.162,138.9931 -192.545,344.6698 -59.087,227.5718 -64.609,476.9997 -16.049,747.3247 l 59.437,330.9156 c 8.154,67.0595 -42.144,121.8815 -149.26,164.6995 -38.916,15.8542 -70.054,21.1562 -91.949,15.4393 -21.649,-4.9779 -33.808,-22.6599 -36.725,-51.3738 -38.385,-214.3232 -75.084,-428.413 -111.55,-641.751 -50.285,-265.7748 -101.918,-478.9961 -154.445,-640.6492 -31.32,-96.4085 -66.45,-137.8912 -105.587,-125.1742 -45.67,14.8431 -102.76,105.5088 -171.272,272.0361 -1.957,3.8371 -5.846,6.6891 -11.641,8.5817 -13.041,4.2391 -29.634,0.013 -49.546,-11.9392 -20.158,-12.6911 -32.59,-26.2897 -37.542,-41.5087 -2.346,-7.2595 -2.787,-13.5208 -1.309,-18.8098 102.462,-286.5291 229.076,-454.288 378.401,-502.8098 73.943,-24.0211 127.935,-25.5378 162.729,-4.7965 34.793,20.7544 64.57,67.9799 88.345,141.1969 16.489,50.7386 35.908,159.8383 58.516,325.6007 0.869,12.5356 7.571,18.3691 20.833,17.2802 12.548,-0.8686 21.532,-10.2151 25.524,-27.5342 45.593,-163.079 109.139,-310.3428 191.378,-442.0505 107.363,-172.7238 227.728,-280.7475 360.395,-323.8506 113.079,-36.7382 179.283,-25.4082 198.598,34.0417 7.766,23.9174 12.303,60.1111 13.625,108.5682 z m 1630.583,-375.9115 c 49.222,151.5028 10.449,305.9482 -117.292,462.8567 -121.908,150.2064 -354.496,339.5752 -697.533,566.434 58.335,159.7604 136.79,270.5064 234.663,332.4842 86.828,55.1331 177.365,67.3965 272.334,36.5437 124.682,-40.5105 238.383,-127.1576 340.146,-260.395 37.969,-48.3922 72.374,-70.7929 103.421,-66.4631 36.09,9.9299 58.841,30.5805 68.486,60.2925 7.311,22.4785 3.02,46.3052 -11.875,71.9856 -157.479,233.0941 -337.462,382.1339 -541.155,448.3118 -373.319,121.2982 -629.591,-31.0602 -768.079,-457.3084 -103.396,-318.2116 -95.877,-610.7816 23.049,-876.2193 112.068,-251.9948 290.496,-418.1591 535.503,-497.7671 301.554,-97.977 487.669,-38.2289 558.332,179.2444 z m -313.584,189.2391 c -22.141,-68.1354 -61.07,-116.411 -117.24,-146.2396 -55.211,-29.3491 -116.645,-33.4326 -183.328,-11.7578 -116.709,37.9178 -199.402,133.7041 -248.054,287.3588 -52.826,165.4254 -49.948,356.8294 7.934,574.4453 241.637,-173.8646 400.075,-310.304 475.288,-409.2792 75.473,-98.2493 97.187,-196.6671 65.4,-294.5275 z"
   id="path13"
   inkscape:connector-curvature="0"
   style="fill:#ffcc00;fill-rule:nonzero;stroke-width:1.29633582" />
  <path
   class="fil3"
   d="M11891.47 17194.27c15.56,47.91 14.41,93.69 -3.45,137.33 -17.87,43.64 -47.81,72.06 -89.68,85.67 -90.19,29.3 -152.02,-7.59 -185.38,-110.25 -15.05,-46.3 -12.03,-90.45 9.04,-132.47 21.07,-42.01 52.2,-69.48 92.87,-82.7 86.55,-28.12 145.33,6.2 176.6,102.42zm815.45 -1009.64c7.07,21.74 -0.45,58.9 -22.93,111.61 -20.18,47.51 -41.13,74.79 -62.47,81.72 -18.93,6.15 -48.94,-8.13 -90.31,-42.32 -56.01,-46.34 -102.07,-63.42 -139.11,-51.39 -74.49,24.2 -124.71,79.25 -150.26,165 -28.27,92.42 -21.35,202.79 20.38,331.22 31.14,95.82 76,165.37 133.91,207.98 53.25,39.24 108.32,49.83 164.68,31.51 69.26,-22.5 126.25,-70.39 171.66,-144.35 20.18,-31.04 39.02,-42.94 56.23,-36.52 22.83,9.94 36,20.35 39.53,31.22 2.88,8.86 0.38,20.35 -6.96,34.76 -71.86,137.74 -166.11,225.79 -283.27,263.85 -209.36,68.03 -351.45,-13.1 -426.28,-243.4 -59.26,-182.38 -54.38,-349.55 14.25,-501.38 61.68,-137.56 154.33,-226.42 278.74,-266.84 176.75,-57.43 277.62,-48.36 302.21,27.33zm1042.17 -65.31c54.16,166.68 50.83,322.21 -9.71,467.4 -59.68,138.24 -153.27,228.3 -281.72,270.03 -227.47,73.91 -382.74,-17.63 -466.33,-274.9 -54.16,-166.68 -48.03,-321.79 18.52,-464.94 61.8,-133.14 156.3,-220.37 283.13,-261.58 109.1,-35.45 203.7,-29.24 283.8,18.62 76.89,46.24 134.24,128.21 172.31,245.37zm-169.78 126.82c-71.82,-221.04 -171.28,-310.68 -298.5,-269.34 -74.89,24.33 -122.72,81.27 -144,170.53 -21.17,89.67 -11.15,198.59 30.45,326.62 71.03,218.62 173.31,306.01 306.98,262.58 72.87,-23.68 119.09,-80.09 137.96,-168.58 18.76,-88.88 7.92,-196.2 -32.89,-321.81zm794.26 141.65c15.57,47.9 14.42,93.68 -3.45,137.33 -17.87,43.64 -47.8,72.06 -89.67,85.66 -90.19,29.31 -152.03,-7.58 -185.39,-110.25 -15.04,-46.3 -12.03,-90.45 9.04,-132.46 21.07,-42.01 52.2,-69.49 92.87,-82.7 86.56,-28.12 145.34,6.19 176.6,102.42zm1253.11 -447.67c-52.87,156.5 -118.09,247.58 -195.79,272.82 -80.52,26.17 -131.25,7.04 -152.18,-57.38 -9.81,-30.2 -24.23,-140.35 -43.27,-330.46 -16.55,-165.99 -28.81,-261.28 -37.05,-286.64 -26.3,-80.93 -76.42,-109.15 -150.1,-85.21 -57.57,18.71 -102.71,92.13 -135.94,220 -35.17,135.61 -42.07,285.63 -21.37,450.72l23.77 185.46c4.68,36.31 -23.8,66.49 -84.49,90.66 -23.64,9.46 -40.93,12.4 -52.69,9.1 -11.62,-2.89 -18.78,-12.59 -21.2,-28.27 -15.47,-114.71 -31.46,-229.7 -47.73,-344.15 -20.92,-135.63 -45.77,-249.08 -75.2,-339.67 -24.47,-75.29 -49.24,-109.08 -73.4,-101.23 -25.76,8.37 -55.46,58.08 -89.08,149.13 -1.9,2.39 -4.05,3.98 -6.47,4.77 -7.64,2.48 -17.8,0 -29.52,-7.33 -11.73,-7.31 -19.3,-15.53 -22.05,-23.99 -1.04,-3.22 -1.43,-5.77 -1.14,-7.64 54.48,-158.36 119.56,-249.84 195.66,-274.56 72.07,-23.42 120.73,3.06 145.46,79.15 13.99,43.08 25.87,101.54 35.75,174.44 0.49,6.96 4.61,10.08 12.38,9.33 7.37,-0.61 11.56,-5.53 12.17,-14.63 54.92,-235.07 145.41,-373.07 272.23,-414.28 133.66,-43.43 223.26,4.91 268.66,144.62 10.72,33.01 25.07,152.53 43.2,357.63 13.49,144.28 24.62,230.59 33.77,258.77 7.33,22.55 24.69,29.37 52.06,20.47 19.73,-6.41 49.69,-55.31 89.47,-146.58 1.09,-2.13 2.44,-3.46 4.05,-3.98 7.25,-2.36 16.87,-0.14 28.99,7.04 12,6.79 19.31,14.21 21.92,22.26 1.05,3.22 0.76,6.43 -0.87,9.63zm731.13 -993.81c-110.05,247.63 -236.44,531.28 -379.56,849.76 -9.92,20.14 -14.29,31.35 -13.51,33.76 2.4,1.9 6.55,0.99 13.27,-2.97 34.39,-14.74 63.66,-26.03 87.81,-33.88 18.12,-5.88 57.15,-14.56 117.48,-26.15 60.33,-11.59 100.56,-20.65 119.89,-26.93 63.61,-20.67 108.29,-69.47 134.57,-146.11 5.77,-19.24 19.76,-26.89 41.29,-23.65 21.96,-0.91 30.99,9.07 26.68,30.06 -6.7,36.9 -10.2,72.75 -9.79,106.89 -0.25,104.69 -44,171.42 -132.17,200.07 -35.44,11.52 -101.13,24.41 -196.29,38.41 -95.56,14.13 -164.48,28.07 -207.15,41.93 -57.58,18.71 -107.76,51.93 -150.56,99.67 -0.69,2 -2.44,3.46 -4.86,4.25 -8.04,2.61 -17.8,0 -29.92,-7.2 -11.73,-7.31 -19.17,-15.14 -21.65,-22.78 -1.05,-3.23 -0.76,-6.43 0.87,-9.64 166.47,-378.13 292.45,-660.31 377.93,-846.55 9.66,-20.95 13.77,-32.96 12.72,-36.19 -1.58,-2.15 -5.47,-1.78 -12.45,1.38 -16.8,7.23 -47.94,18.25 -93.43,33.03 -18.12,5.88 -54.32,13.64 -108.61,23.27 -54.3,9.63 -90.91,17.52 -109.83,23.66 -40.26,13.09 -67.56,29.08 -82.83,47.84 -15.27,18.76 -28.9,50.79 -41.29,96.21 -4.98,21.65 -19.37,29.44 -42.49,24.04 -17.93,-0.4 -25.35,-10.9 -22.78,-31.77 4.55,-35.3 6.83,-70.76 7.23,-106.51 -0.3,-66.67 4.32,-110 13.97,-129.62 13.31,-26.13 47.62,-47.96 102.78,-65.88 36.23,-11.78 100.32,-24.14 192.25,-37.1 91.94,-12.95 159.65,-26.5 203.13,-40.63 58.79,-19.1 106.15,-51.4 142.11,-96.91 1.89,-2.39 3.65,-3.86 5.25,-4.38 8.46,-2.75 19.95,-0.25 34.09,7.62 14.53,7.74 23.03,16.11 25.91,24.96 1.05,3.23 1.02,5.91 -0.06,8.04z"
   id="path15" />
  <path
   class="fil3"
   d="M19159.76 14206.04c-174.68,-355.53 -545.32,-627.08 -972.85,-752.63 -509.28,-149.58 -1055.7,-105.55 -1568.4,35.19 -522.02,143.31 -1117.45,375.43 -1596.13,599.91 -417.73,195.9 -722.95,304.51 -1223.47,475.53 -1008.7,278.39 -7229.53,2788.84 -9077.91,2380.98 128.87,54.42 182.72,124.02 251.1,168.72 119.19,77.9 180.62,122.11 266.79,184.9 243.9,177.7 461.71,285.5 893.77,243.57 443.06,-52.71 7651.41,-2438.5 8064.37,-2596.27 426.71,-163.27 893.41,-351.2 1291.96,-542.49 719.85,-272.87 1792.2,-791.02 2592.2,-567.57 323.27,90.29 673.4,398.22 744.84,685.57 35.02,140.86 -26.29,380.57 -187.3,543.54 -198.22,200.65 -526.81,309.34 -760.72,268.46 -168.54,-29.46 -386.17,-392.15 -339.76,-545.34 44.82,-147.98 221.39,-256.09 423,-261.55 218.22,-5.93 460.86,97.39 460.86,97.39 -266.18,-582.06 -1021.89,-355.62 -1216.31,-37.98 -237.04,387.28 46.59,837.49 471.83,1010.13 438.07,177.83 949.91,23.02 1256.46,-284.33 310.47,-306.5 414.55,-740.44 225.67,-1105.73z"
   id="path17" />
  <path
   class="fil3"
   d="m 1068.4763,10335.457 c 263.1188,-52.561 1404.0825,-403.6134 1660.0647,-500.7561 225.3707,-85.5273 455.8495,-328.458 488.3415,-538.6006 15.9239,-103.0281 -43.4559,-270.507 -169.1743,-376.637 -154.7753,-130.6784 -396.8398,-187.134 -561.4982,-142.738 -118.6337,31.9737 -250.8076,305.4938 -207.6923,412.0605 41.6495,102.9393 174.9486,168.8263 319.493,159.6762 156.4706,-9.8979 323.3277,-99.5117 323.3277,-99.5117 -152.6877,433.559 -707.8786,320.5516 -867.5103,105.9449 -194.6333,-261.6456 -20.9284,-602.0373 272.0469,-753.0593 301.8145,-155.5674 677.9332,-77.991 917.1032,121.9873 238.2668,199.201 337.9117,502.9106 233.0328,776.253 -101.9028,265.6062 -349.4234,483.8478 -647.0773,601.3418 -332.9517,64.502 -1011.5142,291.739 -1717.6086,450.171 L 956.85329,10586.25 905.95,10383.755 Z"
   id="path19"
   inkscape:connector-curvature="0"
   style="fill:#ffcc00;fill-rule:nonzero;stroke-width:0.74030381" />
  <path
   class="fil3"
   d="m 18731.725,4912.8736 126.335,-44.5402 c -35.236,-37.1857 -70.472,-74.3637 -105.708,-111.5493 -402.231,-8.6542 121.059,-119.095 -183.383,-46.3292 -370.067,88.4535 -730.227,183.5812 -1014.815,294.0449 -294.962,114.485 -210.323,70.22 -412.459,142.94 174.086,-155.3709 139.415,-199.3683 150.034,-415.8462 10.925,-222.7852 -121.908,-419.3018 -324.999,-507.4037 -203.856,-88.4459 -472.955,-55.9008 -641.56,128.0321 -163.658,178.5431 -206.172,466.1432 -18.776,609.7788 153.696,117.8106 550.598,68.6757 558.763,-281.4687 0,0 -92.421,104.3018 -195.202,148.3909 -94.959,40.7406 -198.672,24.4566 -248.977,-40.2972 -52.078,-67.0244 -22.881,-296.369 49.731,-347.5374 100.778,-71.0228 275.376,-87.238 407.59,-29.0819 107.367,47.2313 183.596,154.5528 195.309,232.9607 23.891,159.9121 -86.069,408.7822 -218.626,523.917 -140.907,138.5976 -315.238,351.3524 -480.279,451.5258 972.14,-293.8232 1598.692,-550.002 2357.022,-707.5364 z"
   id="path21"
   inkscape:connector-curvature="0"
   style="fill:#ffcc00;fill-rule:nonzero;stroke-width:0.76450753" />
  <path
   class="fil3"
   d="M5829.87 2725.08c341.39,-121.72 438.98,-144.06 803.04,-209.16 320.53,-57.32 756.24,64.23 939.74,285.2 89.96,108.35 137.4,343.64 65.37,553.89 -88.66,258.86 -329.99,492.3 -551.62,555.13 -159.68,45.29 -502.68,-179.95 -526.68,-333.36 -23.18,-148.2 85.56,-317.07 259.42,-406.79 188.19,-97.13 443.75,-109.09 443.75,-109.09 -477.86,-396.44 -1042.8,119.84 -1078.84,479.33 -43.95,438.29 393.6,712.19 837.93,683.86 457.73,-29.2 839.75,-380.15 978.11,-777.89 137.86,-396.22 42.53,-817.33 -268.72,-1061.31 -302.44,-237.06 -740.75,-318.17 -1167.23,-247.74l-1277.24 707.47 542.97 -119.54z"
   id="path23" />
  <path
   class="fil3"
   d="M15054.92 19977.55c-341.4,121.72 -438.98,144.06 -803.05,209.15 -320.52,57.32 -756.23,-64.23 -939.73,-285.2 -89.96,-108.34 -137.41,-343.63 -65.37,-553.88 88.66,-258.87 329.99,-492.3 551.61,-555.14 159.69,-45.29 502.69,179.95 526.69,333.37 23.18,148.19 -85.56,317.07 -259.42,406.79 -188.2,97.13 -443.75,109.09 -443.75,109.09 477.86,396.44 1042.8,-119.85 1078.84,-479.34 43.95,-438.29 -393.6,-712.19 -837.93,-683.86 -457.74,29.21 -839.75,380.16 -978.12,777.9 -137.86,396.22 -42.52,817.33 268.73,1061.3 302.44,237.07 670.19,340.22 1096.67,269.79l1323.98 -771.83 -519.15 161.86z"
   id="path25" />
  <path
   class="fil3"
   d="M11042.43 20937.26c342.09,-119.77 432.05,-163.7 756.2,-341.76 285.39,-156.77 548.03,-525.06 551.98,-812.26 1.93,-140.81 -108.97,-353.68 -297.1,-472.01 -231.6,-145.71 -566.02,-175.72 -777.92,-85.38 -152.69,65.08 -278.07,455.81 -200.35,590.24 75.06,129.87 265.75,192.94 457.38,153.53 207.45,-42.66 413.79,-193.9 413.79,-193.9 -122.74,608.65 -886.63,561.87 -1140.5,304.81 -309.54,-313.4 -141.18,-801.38 222.33,-1058.47 374.47,-264.84 892.17,-231.78 1249.69,-9.24 356.17,221.67 546.55,609.2 457.65,994.55 -86.38,374.45 -376.44,712.91 -752.51,926.03l-1446.24 204.06 505.6 -200.2z"
   id="path27" />
 </g>
</svg>